HIERARCHY
ROOT Hips
{
  OFFSET 53.6708 91.6072 5.37163
  CHANNELS 6 Xposition Yposition Zposition Zrotation Xrotation Yrotation
  JOINT spine
  {
    OFFSET 0 6.84637 0.3937
    CHANNELS 3 Zrotation Xrotation Yrotation
    JOINT spine1
    {
      OFFSET 0 9.49621 0
      CHANNELS 3 Zrotation Xrotation Yrotation
      JOINT spine2
      {
        OFFSET 0 9.09909 0
        CHANNELS 3 Zrotation Xrotation Yrotation
        JOINT Neck
        {
          OFFSET 0 23.3612 1.11378
          CHANNELS 3 Zrotation Xrotation Yrotation
          JOINT Head
          {
            OFFSET 0 7.05802 0
            CHANNELS 3 Zrotation Xrotation Yrotation
            End Site
            {
              OFFSET 0 17.0844 -5.63419
            }
          }
        }
        JOINT RightShoulder
        {
          OFFSET -3.83136 9.82631 -0.533491
          CHANNELS 3 Zrotation Xrotation Yrotation
          JOINT RightArm
          {
            OFFSET 0 12.8881 0
            CHANNELS 3 Zrotation Xrotation Yrotation
            JOINT RightArmRoll
            {
              OFFSET 0 6.50617 0
              CHANNELS 3 Zrotation Xrotation Yrotation
              JOINT RightForeArm
              {
                OFFSET 0 18.9501 0
                CHANNELS 3 Zrotation Xrotation Yrotation
                JOINT RightForeArmRoll
                {
                  OFFSET 0 7.30092 0
                  CHANNELS 3 Zrotation Xrotation Yrotation
                  JOINT RightHand
                  {
                    OFFSET 0 14.6514 0
                    CHANNELS 3 Zrotation Xrotation Yrotation
                    End Site
                    {
                      OFFSET 0 0 0
                    }
                  }
                }
              }
            }
          }
        }
        JOINT LeftShoulder
        {
          OFFSET 3.83136 9.82631 -0.533491
          CHANNELS 3 Zrotation Xrotation Yrotation
          JOINT LeftArm
          {
            OFFSET 0 12.8881 0
            CHANNELS 3 Zrotation Xrotation Yrotation
            JOINT LeftArmRoll
            {
              OFFSET 0 6.50616 0
              CHANNELS 3 Zrotation Xrotation Yrotation
              JOINT LeftForeArm
              {
                OFFSET 0 18.9501 0
                CHANNELS 3 Zrotation Xrotation Yrotation
                JOINT LeftForeArmRoll
                {
                  OFFSET 0 7.30092 0
                  CHANNELS 3 Zrotation Xrotation Yrotation
                  JOINT LeftHand
                  {
                    OFFSET 0 14.6514 0
                    CHANNELS 3 Zrotation Xrotation Yrotation
                    End Site
                    {
                      OFFSET 0 0 0
                    }
                  }
                }
              }
            }
          }
        }
      }
    }
  }
  JOINT RightUpLeg
  {
    OFFSET -6.06837 -1.11278 -0.933477
    CHANNELS 3 Zrotation Xrotation Yrotation
    JOINT RightUpLegRoll
    {
      OFFSET 0 17.1796 0
      CHANNELS 3 Zrotation Xrotation Yrotation
      JOINT RightLeg
      {
        OFFSET 0 -21.2743 0
        CHANNELS 3 Zrotation Xrotation Yrotation
        JOINT RightLegRoll
        {
          OFFSET 0 21.3439 0
          CHANNELS 3 Zrotation Xrotation Yrotation
          JOINT RightFoot
          {
            OFFSET 0 17.7652 0
            CHANNELS 3 Zrotation Xrotation Yrotation
            JOINT RightToeBase
            {
              OFFSET 0 14.8508 0
              CHANNELS 3 Zrotation Xrotation Yrotation
              End Site
              {
                OFFSET 0.0062947 7.19213 -0.829005
              }
            }
          }
        }
      }
    }
  }
  JOINT LeftUpLeg
  {
    OFFSET 6.06837 -1.11278 -0.933477
    CHANNELS 3 Zrotation Xrotation Yrotation
    JOINT LeftUpLegRoll
    {
      OFFSET 0 17.1797 0
      CHANNELS 3 Zrotation Xrotation Yrotation
      JOINT LeftLeg
      {
        OFFSET 0 21.2742 0
        CHANNELS 3 Zrotation Xrotation Yrotation
        JOINT LeftLegRoll
        {
          OFFSET 0 21.5412 0
          CHANNELS 3 Zrotation Xrotation Yrotation
          JOINT LeftFoot
          {
            OFFSET 0 17.5679 0
            CHANNELS 3 Zrotation Xrotation Yrotation
            JOINT LeftToeBase
            {
              OFFSET 0 14.8508 0
              CHANNELS 3 Zrotation Xrotation Yrotation
              End Site
              {
                OFFSET -0.0282102 7.19214 -0.829005
              }
            }
          }
        }
      }
    }
  }
}
MOTION
Frames: 4
Frame Time: 0.00208333
53.9315 91.6661 5.79927 0.583108 -0.546674 -3.09612 0.212211 -1.83998 -0.0588023 0.427238 0.310851 -0.12291 0.428874 1.95589 -0.129966 -6.16643 18.191 1.88611 4.15942 -6.97729 0.390485 70.8536 4.8971 0.971322 101.519 1.33877 16.3983 -3.52868e-007 -1.27057e-006 -6.51618e-006 9.53172 15.1664 -2.49255 -4.05345e-006 -2.43137e-006 -3 8.02901 -4.95145 0.697677 -72.7022 2.53703 0.41346 -103.74 2.70362 -26.1621 1.10325e-014 7.67451e-007 6.36111e-015 -9.67271 13.6791 1.97482 1.04048e-005 -4.60926e-006 3.00981 -8.02899 -4.95142 -0.697672 174.446 2.45961 2.05066 180 7.01551e-015 178.943 177.303 4.94916 179.985 -2.20527e-006 -3.53308e-006 0.0419951 -18.4517 67.6951 19.2588 8.13649 25.2327 -3.48773 -175.5 1.33613 0.938685 4.54188e-006 -4.6773e-006 -1.10419 -0.417838 -8.30119 0.226361 -2.5498e-006 1.24535e-006 -0.203946 20.3818 69.846 -21.2267 -8.13649 25.2327 3.48774 
53.9322 91.6698 5.7987 0.578904 -0.53825 -3.09741 0.21161 -1.84204 -0.0590772 0.425705 0.307558 -0.124347 0.427359 1.95259 -0.131405 -6.14519 18.1622 1.87534 4.15701 -6.93626 0.386613 70.8378 4.84679 0.949755 101.509 1.33641 16.4733 -3.52868e-007 -1.27057e-006 -6.51618e-006 9.47909 15.1696 -2.48855 -4.05345e-006 -2.43137e-006 -3 8.02901 -4.95145 0.697677 -72.629 2.48321 0.428734 -103.766 2.69762 -26.1921 -1.33186e-014 7.67451e-007 9.54166e-015 -9.64217 13.7202 1.97631 1.04048e-005 -4.60926e-006 3.00981 -8.02899 -4.95142 -0.697672 174.454 2.4653 2.04274 180 7.01551e-015 178.943 177.308 4.94553 179.985 -2.20527e-006 -3.53308e-006 0.0419951 -18.4529 67.6965 19.2601 8.13649 25.2327 -3.48773 -175.493 1.33475 0.932458 4.54188e-006 -4.6773e-006 -1.10392 -0.423447 -8.27842 0.225222 -2.5498e-006 1.24535e-006 -0.203418 20.3712 69.8354 -21.2154 -8.13649 25.2327 3.48774 
53.93 91.6707 5.79716 0.574543 -0.530205 -3.09891 0.211039 -1.84393 -0.0593358 0.424221 0.304656 -0.125785 0.425892 1.94969 -0.132855 -6.12394 18.131 1.8645 4.15432 -6.89254 0.382658 70.8213 4.7958 0.927965 101.501 1.33415 16.5473 -3.52868e-007 -1.27057e-006 -6.51618e-006 9.42687 15.1729 -2.48461 -4.05345e-006 -2.43137e-006 -3 8.02901 -4.95145 0.697677 -72.555 2.42836 0.444353 -103.795 2.69054 -26.2201 -8.94531e-016 7.67451e-007 6.36111e-015 -9.61326 13.7644 1.97844 1.04048e-005 -4.60926e-006 3.00981 -8.02899 -4.95142 -0.697672 174.461 2.4706 2.03467 180 7.01552e-015 178.943 177.313 4.94185 179.984 -2.20527e-006 -3.53308e-006 0.0419951 -18.4541 67.698 19.2614 8.13649 25.2327 -3.48773 -175.487 1.33236 0.92588 4.54188e-006 -4.6773e-006 -1.10366 -0.42938 -8.25446 0.224008 -2.5498e-006 1.24535e-006 -0.202852 20.36 69.8244 -21.2036 -8.13649 25.2327 3.48774 
53.9303 91.6713 5.79659 0.57007 -0.522428 -3.10055 0.210489 -1.84569 -0.059583 0.42277 0.302028 -0.127226 0.424459 1.94707 -0.134313 -6.10269 18.0982 1.85363 4.15143 -6.84694 0.378645 70.8044 4.74433 0.906021 101.494 1.33196 16.6206 -3.52868e-007 -1.27057e-006 -6.51618e-006 9.37493 15.1762 -2.4807 -4.05345e-006 -2.43137e-006 -3 8.02901 -4.95145 0.697677 -72.4803 2.37277 0.460215 -103.825 2.68269 -26.2465 -4.57205e-015 7.67451e-007 6.36111e-015 -9.58551 13.8107 1.98103 1.04048e-005 -4.60926e-006 3.00981 -8.02899 -4.95142 -0.697672 174.469 2.47563 2.0265 180 7.01552e-015 178.943 177.319 4.93817 179.984 -2.20527e-006 -3.53308e-006 0.0419951 -18.4553 67.6995 19.2627 8.13649 25.2327 -3.48773 -175.48 1.32926 0.919054 4.54188e-006 -4.6773e-006 -1.10339 -0.43554 -8.22966 0.22274 -2.5498e-006 1.24535e-006 -0.202261 20.3485 69.813 -21.1915 -8.13649 25.2327 3.48774 
